[img]http://img42.imageshack.us/img42/5511/laanchod.jpg[/img]
[code]
New Years Eve 2011 TS READNFO XviD-26K

Imdb: 
http://www.imdb.com/title/tt1598822/

Plot:
The lives of several couples and singles in New York intertwine over the course of New Year's Eve.

Sources:
Generator

Notes:
Cropped and encoded the video, so take or leave it the source is not bad just a shame about the hardcoded arabic subs!


Greetz:
Xtreme Encode|FYA|ILLUMANTI|CM8|RX|VISION|HDSCENE|
To all the people who have helped me :P you know who you are

Anything to offer email us @: 26k@hushmail.me

Format                                   : AVI
Format/Info                              : Audio Video Interleave
File size                                : 973 MiB
Duration                                 : 1h 47mn
Overall bit rate                         : 1 268 Kbps

Video
ID                                       : 0
Format                                   : MPEG-4 Visual
Format profile                           : Advanced Simple@L5
Format settings, BVOP                    : 2
Format settings, QPel                    : No
Format settings, GMC                     : No warppoints
Format settings, Matrix                  : Default (H.263)
Codec ID                                 : XVID
Codec ID/Hint                            : XviD
Duration                                 : 1h 47mn
Bit rate                                 : 1 000 Kbps
Width                                    : 752 pixels
Height                                   : 328 pixels
Display aspect ratio                     : 2.25:1
Frame rate                               : 23.000 fps
Color space                              : YUV
Chroma subsampling                       : 4:2:0
Bit depth                                : 8 bits
Scan type                                : Progressive
Compression mode                         : Lossy
Bits/(Pixel*Frame)                       : 0.176
Stream size                              : 767 MiB (79%)
Writing library                          : XviD 63

Audio
ID                                       : 1
Format                                   : MPEG Audio
Format version                           : Version 1
Format profile                           : Layer 3
Codec ID                                 : 55
Codec ID/Hint                            : MP3
Duration                                 : 1h 47mn
Bit rate mode                            : Constant
Bit rate                                 : 256 Kbps
Channel(s)                               : 2 channels
Sampling rate                            : 44.1 KHz
Compression mode                         : Lossy
Stream size                              : 196 MiB (20%)
Alignment                                : Split accross interleaves
Interleave, duration                     : 26 ms (0.60 video frame)
Writing library                          : LAME

[/code]
Screens:
[img]http://img195.imageshack.us/img195/3694/vlcsnap2011121623h22m58.png[/img]
[img]http://img810.imageshack.us/img810/3451/vlcsnap2011121623h23m04.png[/img]
[img]http://img21.imageshack.us/img21/8325/vlcsnap2011121623h23m38.png[/img]
[img]http://img267.imageshack.us/img267/6766/vlcsnap2011121623h23m45.png[/img]
[img]http://img684.imageshack.us/img684/6250/vlcsnap2011121623h23m53.png[/img]

[img]http://img851.imageshack.us/img851/5503/26ks.jpg[/img]
Thank you smallz for banner!